#!OML:ASF Y:\EmotionMaleHayes\Project 1\Capture day 1\Session 1\Male1.ASF
:FULLY-SPECIFIED
:DEGREES
101
root -28.5782 17.1033 1.63591 36.979 84.7309 39.346
lowerback 6.84775 2.06583 -5.02715
upperback -0.332125 2.31833 -1.00008
thorax -4.34767 1.25811 1.535
lowerneck -21.9897 1.63443 4.28209
upperneck 29.7696 0.969385 0.702641
head 13.833 1.19376 -0.230289
rclavicle -1.71421e-014 1.35174e-014
rhumerus -35.7192 6.39826 -90.4357
rradius 29.8363
rwrist 7.63294
rhand -9.73932 -30.2357
rfingers 7.12502
rthumb 16.2347 -59.5759
lclavicle -1.71421e-014 1.35174e-014
lhumerus -32.9885 -7.91795 91.3551
lradius 22.7219
lwrist -16.32
lhand -13.5571 -25.5052
lfingers 7.12502
lthumb 12.5561 4.09751
rfemur 9.73283 -2.88158 8.51469
rtibia 2.70569
rfoot -13.4503 2.66386
rtoes 6.54873
lfemur 14.7268 -0.419918 -18.5366
ltibia -3.35001
lfoot -14.0227 19.795
ltoes -4.81218
102
root -28.5787 17.1022 1.63646 36.3126 84.7524 38.6476
lowerback 6.82067 2.09233 -4.93031
upperback -0.343753 2.36168 -1.02864
thorax -4.34203 1.27718 1.44723
lowerneck -21.9759 1.61399 4.39699
upperneck 29.7667 0.920181 0.633516
head 13.8293 1.17609 -0.286456
rclavicle 7.22497e-015 -3.18055e-015
rhumerus -35.7768 6.47822 -90.5869
rradius 29.9975
rwrist 7.40665
rhand -9.92089 -30.4039
rfingers 7.12502
rthumb 16.0598 -59.7583
lclavicle 7.22497e-015 -3.18055e-015
lhumerus -32.9559 -7.98554 91.3158
lradius 22.7239
lwrist -16.3436
lhand -13.4543 -25.4505
lfingers 7.12502
lthumb 12.6553 4.14612
rfemur 9.69763 -2.75882 8.65048
rtibia 2.69231
rfoot -13.4745 2.52477
rtoes 6.02539
lfemur 14.7049 -0.377066 -18.4401
ltibia -3.38723
lfoot -13.8977 19.8974
ltoes -5.25593
103
root -28.5782 17.1023 1.63654 36.469 84.741 38.818
lowerback 6.8417 2.12026 -4.92575
upperback -0.337593 2.39721 -1.06463
thorax -4.34795 1.29449 1.40278
lowerneck -22.0596 1.61271 4.43238
upperneck 29.8375 0.894198 0.653108
head 13.8776 1.1739 -0.288039
rclavicle -2.56494e-014 0
rhumerus -35.8357 6.62072 -90.7172
rradius 30.1252
rwrist 7.20872
rhand -10.108 -30.6234
rfingers 7.12502
rthumb 15.8796 -59.9923
lclavicle -2.56494e-014 0
lhumerus -32.9206 -8.13208 91.3223
lradius 22.7055
lwrist -16.2993
lhand -13.3574 -25.3888
lfingers 7.12502
lthumb 12.7487 4.20203
rfemur 9.7554 -2.70587 8.65092
rtibia 2.6239
rfoot -13.4284 2.45923
rtoes 5.75034
lfemur 14.7415 -0.446552 -18.4928
ltibia -3.41139
lfoot -13.9146 19.9724
ltoes -4.86857
104
root -28.5797 17.1034 1.63741 36.411 84.7594 38.7969
lowerback 6.91825 2.15147 -4.91482
upperback -0.335525 2.43487 -1.069
thorax -4.39063 1.31359 1.38514
lowerneck -22.0751 1.58519 4.35439
upperneck 29.8747 0.854374 0.743861
head 13.8952 1.16243 -0.245097
rclavicle 5.54617e-015 9.93923e-016
rhumerus -35.8402 6.55004 -90.6975
rradius 30.12
rwrist 7.22477
rhand -10.1871 -30.5866
rfingers 7.12502
rthumb 15.8034 -59.9616
lclavicle 5.54617e-015 9.93923e-016
lhumerus -32.9064 -8.30885 91.3846
lradius 22.6705
lwrist -16.274
lhand -13.507 -25.4534
lfingers 7.12502
lthumb 12.6044 4.1463
rfemur 9.82392 -2.531 8.73161
rtibia 2.54368
rfoot -13.454 2.30638
rtoes 6.16802
lfemur 14.7515 -0.443898 -18.4598
ltibia -3.35981
lfoot -14.0169 19.8804
ltoes -4.17956
105
root -28.5804 17.1053 1.63778 36.5854 84.7446 38.9914
lowerback 6.9744 2.17417 -4.94905
upperback -0.337521 2.45847 -1.07989
thorax -4.4269 1.32668 1.38806
lowerneck -22.0606 1.5639 4.31981
upperneck 29.8714 0.825981 0.779822
head 13.8896 1.1516 -0.230066
rclavicle -2.28397e-014 8.15017e-015
rhumerus -35.8077 6.44506 -90.669
rradius 30.0893
rwrist 7.26801
rhand -10.2051 -30.3441
rfingers 7.12502
rthumb 15.7862 -59.7204
lclavicle -2.28397e-014 8.15017e-015
lhumerus -32.8852 -8.41773 91.4159
lradius 22.6558
lwrist -16.2914
lhand -13.8257 -25.5911
lfingers 7.12502
lthumb 12.2971 4.02732
rfemur 9.83766 -2.50795 8.70755
rtibia 2.55784
rfoot -13.5347 2.28154
rtoes 5.94531
lfemur 14.7377 -0.383063 -18.4645
ltibia -3.31559
lfoot -14.0444 19.8363
ltoes -4.04562
106
root -28.5785 17.105 1.63807 37.1842 84.6946 39.5591
lowerback 6.98273 2.17526 -4.99655
upperback -0.382631 2.45179 -1.14321
thorax -4.47761 1.32561 1.3481
lowerneck -22.0353 1.56778 4.3992
upperneck 29.9026 0.807123 0.773886
head 13.8983 1.15349 -0.249073
rclavicle 1.70885e-014 -7.55382e-015
rhumerus -35.8812 6.41033 -90.7368
rradius 30.109
rwrist 7.23113
rhand -10.2822 -30.0918
rfingers 7.12502
rthumb 15.7119 -59.474
lclavicle 1.70885e-014 -7.55382e-015
lhumerus -32.9288 -8.55174 91.3848
lradius 22.6944
lwrist -16.1756
lhand -13.8826 -25.6121
lfingers 7.12502
lthumb 12.2423 4.0096
rfemur 9.79889 -2.62934 8.57486
rtibia 2.6072
rfoot -13.5187 2.35558
rtoes 5.41982
lfemur 14.7071 -0.367317 -18.5647
ltibia -3.32219
lfoot -13.8015 19.9177
ltoes -5.08712
107
root -28.5788 17.101 1.64001 37.6923 84.6853 39.941
lowerback 6.83579 2.14194 -5.091
upperback -0.402192 2.40849 -1.13911
thorax -4.4168 1.30564 1.41488
lowerneck -22.0288 1.58045 4.4343
upperneck 29.9148 0.826956 0.731971
head 13.903 1.1603 -0.268187
rclavicle -4.6198e-015 -1.43125e-014
rhumerus -35.9022 6.63444 -90.8172
rradius 30.1702
rwrist 7.10808
rhand -10.4523 -30.283
rfingers 7.12502
rthumb 15.5481 -59.678
lclavicle -4.6198e-015 -1.43125e-014
lhumerus -32.8926 -8.54931 91.3847
lradius 22.6881
lwrist -16.0872
lhand -13.9289 -25.5887
lfingers 7.12502
lthumb 12.1976 4.03565
rfemur 9.64061 -2.75237 8.51111
rtibia 2.64841
rfoot -13.4168 2.42392
rtoes 5.75905
lfemur 14.5596 -0.348186 -18.582
ltibia -3.29661
lfoot -13.659 19.8594
ltoes -5.65991
108
root -28.5783 17.106 1.63905 38.2015 84.6441 40.5624
lowerback 7.00922 2.17508 -5.09973
upperback -0.416434 2.43856 -1.19346
thorax -4.52943 1.32265 1.35303
lowerneck -22.0116 1.53979 4.41142
upperneck 29.9787 0.767253 0.773602
head 13.9254 1.14094 -0.257778
rclavicle -1.49237e-014 1.74931e-014
rhumerus -35.9681 6.61026 -90.8663
rradius 30.1818
rwrist 7.10059
rhand -10.5837 -30.4609
rfingers 7.12502
rthumb 15.4215 -59.8656
lclavicle -1.49237e-014 1.74931e-014
lhumerus -32.9548 -8.64098 91.4009
lradius 22.6658
lwrist -16.1144
lhand -14.0458 -25.5991
lfingers 7.12502
lthumb 12.0849 4.03189
rfemur 9.74934 -2.84698 8.37476
rtibia 2.65928
rfoot -13.3942 2.57252
rtoes 6.42868
lfemur 14.6865 -0.424995 -18.7078
ltibia -3.31657
lfoot -13.7835 19.863
ltoes -5.1025
109
root -28.5795 17.1059 1.63819 38.4355 84.6379 40.7971
lowerback 6.98741 2.1589 -5.1726
upperback -0.404732 2.41445 -1.1428
thorax -4.50879 1.31228 1.45012
lowerneck -22.0113 1.55738 4.3454
upperneck 30.0216 0.828808 0.747383
head 13.9443 1.15718 -0.245465
rclavicle -4.08965e-015 7.95139e-015
rhumerus -35.9485 6.67836 -90.7676
rradius 30.1603
rwrist 7.09319
rhand -10.5009 -30.0575
rfingers 7.12502
rthumb 15.5013 -59.4561
lclavicle -4.08965e-015 7.95139e-015
lhumerus -32.944 -8.43089 91.424
lradius 22.6899
lwrist -16.2113
lhand -13.937 -25.6258
lfingers 7.12502
lthumb 12.1898 3.99899
rfemur 9.76037 -2.84287 8.35089
rtibia 2.63576
rfoot -13.4167 2.57647
rtoes 6.61809
lfemur 14.6694 -0.328474 -18.7122
ltibia -3.29952
lfoot -13.6483 19.8674
ltoes -6.02339
110
root -28.5814 17.1045 1.6393 37.6558 84.6637 40.0187
lowerback 6.98225 2.13046 -5.18083
upperback -0.40497 2.37872 -1.05479
thorax -4.50796 1.29532 1.55038
lowerneck -21.9024 1.57758 4.24735
upperneck 30.0179 0.910646 0.731551
head 13.9197 1.17916 -0.221002
rclavicle 8.0997e-015 1.47101e-014
rhumerus -35.9855 6.86961 -90.7208
rradius 30.2138
rwrist 7.03087
rhand -10.4477 -29.9181
rfingers 7.12502
rthumb 15.5525 -59.3128
lclavicle 8.0997e-015 1.47101e-014
lhumerus -32.968 -8.12954 91.4139
lradius 22.7276
lwrist -16.3268
lhand -13.8057 -25.6882
lfingers 7.12502
lthumb 12.3164 3.92908
rfemur 9.75454 -2.81698 8.45358
rtibia 2.6346
rfoot -13.4248 2.54408
rtoes 6.2711
lfemur 14.701 -0.3908 -18.6307
ltibia -3.35298
lfoot -13.7737 19.956
ltoes -5.85145
111
root -28.5825 17.1045 1.64111 36.1124 84.6993 38.5113
lowerback 7.03236 2.14407 -5.0657
upperback -0.378174 2.40514 -1.02096
thorax -4.50641 1.30539 1.51715
lowerneck -21.8925 1.5678 4.21527
upperneck 30.018 0.908543 0.73434
head 13.9171 1.17491 -0.214904
rclavicle -1.97115e-014 9.93923e-016
rhumerus -35.9618 7.08822 -90.8558
rradius 30.4672
rwrist 6.56713
rhand -10.3334 -30.7723
rfingers 7.12502
rthumb 15.6626 -60.1583
lclavicle -1.97115e-014 9.93923e-016
lhumerus -32.9131 -8.02237 91.3526
lradius 22.7079
lwrist -16.4752
lhand -13.8594 -25.8089
lfingers 7.12502
lthumb 12.2647 3.81147
rfemur 9.77985 -2.71243 8.64978
rtibia 2.64291
rfoot -13.4587 2.45587
rtoes 5.91648
lfemur 14.7808 -0.540855 -18.4952
ltibia -3.40497
lfoot -14.2081 19.9774
ltoes -3.68038
